<?xml version="1.0" encoding="UTF-8" standalone="no"?>
<svg
   xmlns:dc="http://purl.org/dc/elements/1.1/"
   xmlns:cc="http://creativecommons.org/ns#"
   xmlns:rdf="http://www.w3.org/1999/02/22-rdf-syntax-ns#"
   xmlns:svg="http://www.w3.org/2000/svg"
   xmlns="http://www.w3.org/2000/svg"
   xmlns:sodipodi="http://sodipodi.sourceforge.net/DTD/sodipodi-0.dtd"
   xmlns:inkscape="http://www.inkscape.org/namespaces/inkscape"
   class="svglite"
   width="460.80pt"
   height="288.00pt"
   viewBox="0 0 460.80 288.00"
   version="1.1"
   id="svg73"
   sodipodi:docname="survival_density_5.svg"
   inkscape:version="0.92.5 (2060ec1f9f, 2020-04-08)"
   inkscape:export-filename="/home/jon/Dropbox/sci/2022-04-ur-ss22-survival_analysis/01-survival_analysis/out/survival_density_2.png"
   inkscape:export-xdpi="300"
   inkscape:export-ydpi="300">
  <metadata
     id="metadata77">
    <rdf:RDF>
      <cc:Work
         rdf:about="">
        <dc:format>image/svg+xml</dc:format>
        <dc:type
           rdf:resource="http://purl.org/dc/dcmitype/StillImage" />
        <dc:title></dc:title>
      </cc:Work>
    </rdf:RDF>
  </metadata>
  <sodipodi:namedview
     pagecolor="#ffffff"
     bordercolor="#666666"
     borderopacity="1"
     objecttolerance="10"
     gridtolerance="10"
     guidetolerance="10"
     inkscape:pageopacity="1"
     inkscape:pageshadow="2"
     inkscape:window-width="3840"
     inkscape:window-height="2030"
     id="namedview75"
     showgrid="true"
     inkscape:zoom="3.4766083"
     inkscape:cx="233.59713"
     inkscape:cy="194.51738"
     inkscape:window-x="0"
     inkscape:window-y="0"
     inkscape:window-maximized="1"
     inkscape:current-layer="svg73">
    <inkscape:grid
       type="xygrid"
       id="grid888" />
  </sodipodi:namedview>
  <defs
     id="defs4">
    <style
       type="text/css"
       id="style2"><![CDATA[
    .svglite line, .svglite polyline, .svglite polygon, .svglite path, .svglite rect, .svglite circle {
      fill: none;
      stroke: #000000;
      stroke-linecap: round;
      stroke-linejoin: round;
      stroke-miterlimit: 10.00;
    }
  ]]></style>
    <clipPath
       id="cpMC4wMHw0NjAuODB8MC4wMHwyODguMDA=-4">
      <rect
         x="0"
         y="0"
         width="460.79999"
         height="288"
         id="rect8-0" />
    </clipPath>
    <clipPath
       id="cpMC4wMHw0NjAuODB8MC4wMHwyODguMDA=-9">
      <rect
         x="0"
         y="0"
         width="460.79999"
         height="288"
         id="rect8-4" />
    </clipPath>
  </defs>
  <defs
     id="defs11">
    <clipPath
       id="cpMC4wMHw0NjAuODB8MC4wMHwyODguMDA=">
      <rect
         x="0.00"
         y="0.00"
         width="460.80"
         height="288.00"
         id="rect8" />
    </clipPath>
  </defs>
  <path
     style="fill:#d23737;fill-opacity:1;stroke:none;stroke-width:0.75px;stroke-linecap:butt;stroke-linejoin:miter;stroke-miterlimit:10;stroke-opacity:1"
     d="M 80.765352,256.44195 80.873217,88.169477 c 0,0 35.161053,79.830533 113.007413,122.346413 32.98039,18.01229 79.4463,28.87234 122.03548,33.97854 81.36817,9.75558 139.18816,9.54557 139.18816,9.54557 v 2.51 z"
     id="path3126"
     inkscape:connector-curvature="0"
     sodipodi:nodetypes="ccssccc" />
  <path
     style="opacity:1;fill:#696969;fill-opacity:1;stroke:none;stroke-width:0.99999994px;stroke-linecap:butt;stroke-linejoin:miter;stroke-miterlimit:10;stroke-opacity:1"
     d="M 60.560547,7.3066406 V 342.06641 H 179.24023 l -71.26546,-0.14382 0.14382,-224.36329 c 0,0 -0.69452,-3.5593 -21.719937,-44.476874 C 65.936482,33.26098 60.560547,7.3066406 60.560547,7.3066406 Z"
     transform="scale(0.75000002)"
     id="path890"
     inkscape:connector-curvature="0"
     sodipodi:nodetypes="cccccsc" />
  <g
     clip-path="url(#cpMC4wMHw0NjAuODB8MC4wMHwyODguMDA=)"
     id="g71">
    <polyline
       points="45.42,5.48 49.52,16.78 53.62,27.57 57.72,37.88 61.82,47.72 65.92,57.12 70.02,66.09 74.11,74.66 78.21,82.85 82.31,90.67 86.41,98.13 90.51,105.26 94.61,112.07 98.71,118.58 102.81,124.78 106.91,130.72 111.00,136.38 115.10,141.79 119.20,146.95 123.30,151.88 127.40,156.60 131.50,161.09 135.60,165.39 139.70,169.49 143.80,173.41 147.90,177.15 151.99,180.73 156.09,184.14 160.19,187.40 164.29,190.51 168.39,193.48 172.49,196.32 176.59,199.03 180.69,201.62 184.79,204.09 188.89,206.45 192.98,208.71 197.08,210.86 201.18,212.92 205.28,214.88 209.38,216.76 213.48,218.55 217.58,220.26 221.68,221.89 225.78,223.45 229.88,224.94 233.97,226.36 238.07,227.72 242.17,229.02 246.27,230.26 250.37,231.44 254.47,232.57 258.57,233.65 262.67,234.68 266.77,235.66 270.87,236.60 274.96,237.50 279.06,238.36 283.16,239.18 287.26,239.96 291.36,240.71 295.46,241.42 299.56,242.10 303.66,242.75 307.76,243.37 311.86,243.96 315.95,244.53 320.05,245.07 324.15,245.59 328.25,246.08 332.35,246.55 336.45,247.00 340.55,247.43 344.65,247.84 348.75,248.23 352.85,248.61 356.94,248.96 361.04,249.31 365.14,249.63 369.24,249.94 373.34,250.24 377.44,250.52 381.54,250.80 385.64,251.05 389.74,251.30 393.84,251.54 397.93,251.76 402.03,251.98 406.13,252.18 410.23,252.38 414.33,252.57 418.43,252.75 422.53,252.92 426.63,253.08 430.73,253.24 434.83,253.39 438.92,253.53 443.02,253.66 447.12,253.79 451.22,253.92 455.32,254.04 "
       style="stroke-width:2.25000007;stroke-linecap:butt;stroke-miterlimit:10;stroke-dasharray:none"
       id="polyline17" />
    <polyline
       points="45.42,256.55 45.42,5.48 "
       style="stroke-width: 1.07; stroke-linecap: butt;"
       id="polyline23" />
    <text
       x="40.49"
       y="259.68"
       text-anchor="end"
       style="font-size: 8.80px; fill: #4D4D4D; font-family: Roboto;"
       textLength="22.10px"
       lengthAdjust="spacingAndGlyphs"
       id="text25">0.000</text>
    <text
       x="40.49"
       y="196.91"
       text-anchor="end"
       style="font-size: 8.80px; fill: #4D4D4D; font-family: Roboto;"
       textLength="22.10px"
       lengthAdjust="spacingAndGlyphs"
       id="text27">0.025</text>
    <text
       x="40.49"
       y="134.14"
       text-anchor="end"
       style="font-size: 8.80px; fill: #4D4D4D; font-family: Roboto;"
       textLength="22.10px"
       lengthAdjust="spacingAndGlyphs"
       id="text29">0.050</text>
    <text
       x="40.49"
       y="71.37"
       text-anchor="end"
       style="font-size: 8.80px; fill: #4D4D4D; font-family: Roboto;"
       textLength="22.10px"
       lengthAdjust="spacingAndGlyphs"
       id="text31">0.075</text>
    <text
       x="40.49"
       y="8.61"
       text-anchor="end"
       style="font-size: 8.80px; fill: #4D4D4D; font-family: Roboto;"
       textLength="22.10px"
       lengthAdjust="spacingAndGlyphs"
       id="text33">0.100</text>
    <polyline
       points="42.68,256.55 45.42,256.55 "
       style="stroke-width: 1.07; stroke: #333333; stroke-linecap: butt;"
       id="polyline35" />
    <polyline
       points="42.68,193.78 45.42,193.78 "
       style="stroke-width: 1.07; stroke: #333333; stroke-linecap: butt;"
       id="polyline37" />
    <polyline
       points="42.68,131.01 45.42,131.01 "
       style="stroke-width: 1.07; stroke: #333333; stroke-linecap: butt;"
       id="polyline39" />
    <polyline
       points="42.68,68.25 45.42,68.25 "
       style="stroke-width: 1.07; stroke: #333333; stroke-linecap: butt;"
       id="polyline41" />
    <polyline
       points="42.68,5.48 45.42,5.48 "
       style="stroke-width: 1.07; stroke: #333333; stroke-linecap: butt;"
       id="polyline43" />
    <polyline
       points="45.42,256.55 455.32,256.55 "
       style="stroke-width: 1.07; stroke-linecap: butt;"
       id="polyline45" />
    <polyline
       points="45.42,259.29 45.42,256.55 "
       style="stroke-width: 1.07; stroke: #333333; stroke-linecap: butt;"
       id="polyline47" />
    <polyline
       points="134.43,259.29 134.43,256.55 "
       style="stroke-width: 1.07; stroke: #333333; stroke-linecap: butt;"
       id="polyline49" />
    <polyline
       points="223.44,259.29 223.44,256.55 "
       style="stroke-width: 1.07; stroke: #333333; stroke-linecap: butt;"
       id="polyline51" />
    <polyline
       points="312.45,259.29 312.45,256.55 "
       style="stroke-width: 1.07; stroke: #333333; stroke-linecap: butt;"
       id="polyline53" />
    <polyline
       points="401.46,259.29 401.46,256.55 "
       style="stroke-width: 1.07; stroke: #333333; stroke-linecap: butt;"
       id="polyline55" />
    <text
       x="45.42"
       y="267.74"
       text-anchor="middle"
       style="font-size: 8.80px; fill: #4D4D4D; font-family: Roboto;"
       textLength="4.95px"
       lengthAdjust="spacingAndGlyphs"
       id="text57">0</text>
    <text
       x="134.43"
       y="267.74"
       text-anchor="middle"
       style="font-size: 8.80px; fill: #4D4D4D; font-family: Roboto;"
       textLength="9.89px"
       lengthAdjust="spacingAndGlyphs"
       id="text59">10</text>
    <text
       x="223.44"
       y="267.74"
       text-anchor="middle"
       style="font-size: 8.80px; fill: #4D4D4D; font-family: Roboto;"
       textLength="9.89px"
       lengthAdjust="spacingAndGlyphs"
       id="text61">20</text>
    <text
       x="312.45"
       y="267.74"
       text-anchor="middle"
       style="font-size: 8.80px; fill: #4D4D4D; font-family: Roboto;"
       textLength="9.89px"
       lengthAdjust="spacingAndGlyphs"
       id="text63">30</text>
    <text
       x="401.46"
       y="267.74"
       text-anchor="middle"
       style="font-size: 8.80px; fill: #4D4D4D; font-family: Roboto;"
       textLength="9.89px"
       lengthAdjust="spacingAndGlyphs"
       id="text65">40</text>
    <text
       x="250.37"
       y="280.17"
       text-anchor="middle"
       style="font-size: 11.00px; font-family: Roboto;"
       textLength="32.90px"
       lengthAdjust="spacingAndGlyphs"
       id="text67">Time x</text>
    <text
       transform="rotate(-90,72.155,58.855)"
       style="font-size:11px;font-family:Roboto;text-anchor:middle"
       textLength="90.07"
       lengthAdjust="spacingAndGlyphs"
       id="text69">Probability density</text>
  </g>
  <g
     id="g899"
     transform="translate(-3)" />
  <text
     xml:space="preserve"
     style="font-style:normal;font-variant:normal;font-weight:normal;font-stretch:normal;font-size:11px;line-height:1000;font-family:Roboto;-inkscape-font-specification:Roboto;letter-spacing:0px;word-spacing:0px;fill:#000000;fill-opacity:1;stroke:none;stroke-width:0.75"
     x="-82.377335"
     y="13.654905"
     id="text969"
     transform="rotate(-90)"><tspan
       sodipodi:role="line"
       id="tspan967"
       x="-82.377335"
       y="13.654905"
       style="stroke-width:0.75">f(x)</tspan></text>
  <g
     transform="matrix(0.67621368,0,0,0.67621368,148.88364,3.0443492)"
     clip-path="url(#cpMC4wMHw0NjAuODB8MC4wMHwyODguMDA=-9)"
     id="g73">
    <polyline
       points="40.47,256.55 44.62,245.25 48.77,234.46 52.92,224.15 57.07,214.31 61.22,204.91 65.37,195.93 69.51,187.36 73.66,179.18 77.81,171.36 81.96,163.89 86.11,156.76 90.26,149.95 94.40,143.45 98.55,137.24 102.70,131.31 106.85,125.65 111.00,120.24 115.15,115.07 119.30,110.14 123.44,105.43 127.59,100.93 131.74,96.64 135.89,92.53 140.04,88.62 144.19,84.87 148.33,81.30 152.48,77.89 156.63,74.63 160.78,71.52 164.93,68.54 169.08,65.71 173.23,63.00 177.37,60.41 181.52,57.93 185.67,55.57 189.82,53.32 193.97,51.17 198.12,49.11 202.26,47.15 206.41,45.27 210.56,43.48 214.71,41.77 218.86,40.14 223.01,38.58 227.16,37.09 231.30,35.66 235.45,34.31 239.60,33.01 243.75,31.77 247.90,30.59 252.05,29.46 256.19,28.38 260.34,27.35 264.49,26.36 268.64,25.42 272.79,24.52 276.94,23.67 281.09,22.85 285.23,22.07 289.38,21.32 293.53,20.61 297.68,19.93 301.83,19.28 305.98,18.66 310.12,18.06 314.27,17.50 318.42,16.96 322.57,16.44 326.72,15.95 330.87,15.47 335.02,15.02 339.16,14.60 343.31,14.18 347.46,13.79 351.61,13.42 355.76,13.06 359.91,12.72 364.05,12.39 368.20,12.08 372.35,11.79 376.50,11.50 380.65,11.23 384.80,10.97 388.95,10.72 393.09,10.49 397.24,10.26 401.39,10.05 405.54,9.84 409.69,9.65 413.84,9.46 417.98,9.28 422.13,9.11 426.28,8.95 430.43,8.79 434.58,8.64 438.73,8.50 442.88,8.36 447.02,8.23 451.17,8.11 455.32,7.99 "
       style="fill:none;stroke:#000000;stroke-width:3.20000005;stroke-linecap:butt;stroke-linejoin:round;stroke-miterlimit:10"
       id="polyline17-3" />
    <polyline
       points="40.47,256.55 40.47,5.48 "
       style="fill:none;stroke:#000000;stroke-width:1.07000005;stroke-linecap:butt;stroke-linejoin:round;stroke-miterlimit:10"
       id="polyline25" />
    <text
       x="35.540001"
       y="259.67999"
       style="font-size:8.80000019px;font-family:Roboto;text-anchor:end;fill:#4d4d4d"
       textLength="17.16"
       lengthAdjust="spacingAndGlyphs"
       id="text27-5">0.00</text>
    <text
       x="35.540001"
       y="8.6099997"
       style="font-size:8.80000019px;font-family:Roboto;text-anchor:end;fill:#4d4d4d"
       textLength="17.16"
       lengthAdjust="spacingAndGlyphs"
       id="text35">1.00</text>
    <polyline
       points="37.73,256.55 40.47,256.55 "
       style="fill:none;stroke:#333333;stroke-width:1.07000005;stroke-linecap:butt;stroke-linejoin:round;stroke-miterlimit:10"
       id="polyline37-1" />
    <polyline
       points="37.73,193.78 40.47,193.78 "
       style="fill:none;stroke:#333333;stroke-width:1.07000005;stroke-linecap:butt;stroke-linejoin:round;stroke-miterlimit:10"
       id="polyline39-7" />
    <polyline
       points="37.73,131.01 40.47,131.01 "
       style="fill:none;stroke:#333333;stroke-width:1.07000005;stroke-linecap:butt;stroke-linejoin:round;stroke-miterlimit:10"
       id="polyline41-4" />
    <polyline
       points="37.73,68.25 40.47,68.25 "
       style="fill:none;stroke:#333333;stroke-width:1.07000005;stroke-linecap:butt;stroke-linejoin:round;stroke-miterlimit:10"
       id="polyline43-3" />
    <polyline
       points="37.73,5.48 40.47,5.48 "
       style="fill:none;stroke:#333333;stroke-width:1.07000005;stroke-linecap:butt;stroke-linejoin:round;stroke-miterlimit:10"
       id="polyline45-1" />
    <polyline
       points="40.47,256.55 455.32,256.55 "
       style="fill:none;stroke:#000000;stroke-width:1.07000005;stroke-linecap:butt;stroke-linejoin:round;stroke-miterlimit:10"
       id="polyline47-4" />
    <polyline
       points="40.47,259.29 40.47,256.55 "
       style="fill:none;stroke:#333333;stroke-width:1.07000005;stroke-linecap:butt;stroke-linejoin:round;stroke-miterlimit:10"
       id="polyline49-6" />
    <polyline
       points="130.56,259.29 130.56,256.55 "
       style="fill:none;stroke:#333333;stroke-width:1.07000005;stroke-linecap:butt;stroke-linejoin:round;stroke-miterlimit:10"
       id="polyline51-9" />
    <polyline
       points="220.64,259.29 220.64,256.55 "
       style="fill:none;stroke:#333333;stroke-width:1.07000005;stroke-linecap:butt;stroke-linejoin:round;stroke-miterlimit:10"
       id="polyline53-4" />
    <polyline
       points="310.72,259.29 310.72,256.55 "
       style="fill:none;stroke:#333333;stroke-width:1.07000005;stroke-linecap:butt;stroke-linejoin:round;stroke-miterlimit:10"
       id="polyline55-2" />
    <polyline
       points="400.81,259.29 400.81,256.55 "
       style="fill:none;stroke:#333333;stroke-width:1.07000005;stroke-linecap:butt;stroke-linejoin:round;stroke-miterlimit:10"
       id="polyline57" />
    <text
       x="40.470001"
       y="267.73999"
       style="font-size:8.80000019px;font-family:Roboto;text-anchor:middle;fill:#4d4d4d"
       textLength="4.9499998"
       lengthAdjust="spacingAndGlyphs"
       id="text59-2">0</text>
    <text
       x="130.56"
       y="267.73999"
       style="font-size:8.80000019px;font-family:Roboto;text-anchor:middle;fill:#4d4d4d"
       textLength="9.8900003"
       lengthAdjust="spacingAndGlyphs"
       id="text61-6">10</text>
    <text
       x="220.64"
       y="267.73999"
       style="font-size:8.80000019px;font-family:Roboto;text-anchor:middle;fill:#4d4d4d"
       textLength="9.8900003"
       lengthAdjust="spacingAndGlyphs"
       id="text63-4">20</text>
    <text
       x="310.72"
       y="267.73999"
       style="font-size:8.80000019px;font-family:Roboto;text-anchor:middle;fill:#4d4d4d"
       textLength="9.8900003"
       lengthAdjust="spacingAndGlyphs"
       id="text65-1">30</text>
    <text
       x="400.81"
       y="267.73999"
       style="font-size:8.80000019px;font-family:Roboto;text-anchor:middle;fill:#4d4d4d"
       textLength="9.8900003"
       lengthAdjust="spacingAndGlyphs"
       id="text67-2">40</text>
    <text
       x="247.89999"
       y="280.17001"
       style="font-size:11px;font-family:Roboto;text-anchor:middle"
       textLength="32.900002"
       lengthAdjust="spacingAndGlyphs"
       id="text69-8">Time x</text>
    <text
       transform="rotate(-90,71.405,59.605)"
       style="font-size:11px;font-family:Roboto;text-anchor:middle"
       textLength="144.28999"
       lengthAdjust="spacingAndGlyphs"
       id="text71">Cumulative probability P(X≤x)</text>
  </g>
  <text
     xml:space="preserve"
     style="font-style:normal;font-variant:normal;font-weight:normal;font-stretch:normal;font-size:7.43835068px;line-height:1000;font-family:Roboto;-inkscape-font-specification:Roboto;letter-spacing:0px;word-spacing:0px;fill:#000000;fill-opacity:1;stroke:none;stroke-width:0.50716025"
     x="374.69891"
     y="23.468292"
     id="text1578"><tspan
       sodipodi:role="line"
       id="tspan1576"
       x="374.69891"
       y="23.468292"
       style="stroke-width:0.50716025">Distribution function F(x)</tspan></text>
  <polyline
     transform="matrix(0.67621368,0,0,-0.67621368,148.67734,181.63012)"
     points="40.47,256.55 44.62,245.25 48.77,234.46 52.92,224.15 57.07,214.31 61.22,204.91 65.37,195.93 69.51,187.36 73.66,179.18 77.81,171.36 81.96,163.89 86.11,156.76 90.26,149.95 94.40,143.45 98.55,137.24 102.70,131.31 106.85,125.65 111.00,120.24 115.15,115.07 119.30,110.14 123.44,105.43 127.59,100.93 131.74,96.64 135.89,92.53 140.04,88.62 144.19,84.87 148.33,81.30 152.48,77.89 156.63,74.63 160.78,71.52 164.93,68.54 169.08,65.71 173.23,63.00 177.37,60.41 181.52,57.93 185.67,55.57 189.82,53.32 193.97,51.17 198.12,49.11 202.26,47.15 206.41,45.27 210.56,43.48 214.71,41.77 218.86,40.14 223.01,38.58 227.16,37.09 231.30,35.66 235.45,34.31 239.60,33.01 243.75,31.77 247.90,30.59 252.05,29.46 256.19,28.38 260.34,27.35 264.49,26.36 268.64,25.42 272.79,24.52 276.94,23.67 281.09,22.85 285.23,22.07 289.38,21.32 293.53,20.61 297.68,19.93 301.83,19.28 305.98,18.66 310.12,18.06 314.27,17.50 318.42,16.96 322.57,16.44 326.72,15.95 330.87,15.47 335.02,15.02 339.16,14.60 343.31,14.18 347.46,13.79 351.61,13.42 355.76,13.06 359.91,12.72 364.05,12.39 368.20,12.08 372.35,11.79 376.50,11.50 380.65,11.23 384.80,10.97 388.95,10.72 393.09,10.49 397.24,10.26 401.39,10.05 405.54,9.84 409.69,9.65 413.84,9.46 417.98,9.28 422.13,9.11 426.28,8.95 430.43,8.79 434.58,8.64 438.73,8.50 442.88,8.36 447.02,8.23 451.17,8.11 455.32,7.99 "
     style="fill:none;stroke:#d23737;stroke-width:3.20000005;stroke-linecap:butt;stroke-linejoin:round;stroke-miterlimit:10;stroke-opacity:1"
     id="polyline17-7" />
  <text
     xml:space="preserve"
     style="font-style:normal;font-variant:normal;font-weight:normal;font-stretch:normal;font-size:7.43835068px;line-height:1000;font-family:Roboto;-inkscape-font-specification:Roboto;letter-spacing:0px;word-spacing:0px;fill:#d23737;fill-opacity:1;stroke:none;stroke-width:0.50716025"
     x="385.90317"
     y="167.53456"
     id="text1578-5"><tspan
       sodipodi:role="line"
       id="tspan1576-4"
       x="385.90317"
       y="167.53456"
       style="fill:#d23737;fill-opacity:1;stroke-width:0.50716025">Survival function S(x)</tspan></text>
  <text
     transform="matrix(0,-0.67621368,0.67621368,0,165.91917,91.635098)"
     style="font-size:11px;font-family:Roboto;text-anchor:middle"
     textLength="144.28999"
     lengthAdjust="spacingAndGlyphs"
     id="text71-9">
    <tspan
       style="fill:#d23737;fill-opacity:1;stroke:none"
       id="tspan1637">Cumulative probability P(X&gt;x)</tspan>
  </text>
  <g
     id="g899-4-2-2"
     transform="translate(-147.61016,18)">
    <rect
       y="18"
       x="348.75"
       height="15"
       width="116.11016"
       id="rect892-6-8-8"
       style="opacity:1;fill:#d23737;fill-opacity:1;stroke:none;stroke-width:1.99567986;stroke-linecap:butt;stroke-linejoin:miter;stroke-miterlimit:4;stroke-dasharray:none;stroke-dashoffset:0;stroke-opacity:1"
       ry="3.75" />
    <text
       id="text882-9-8-3"
       y="28.501892"
       x="350.22351"
       style="font-style:normal;font-variant:normal;font-weight:normal;font-stretch:normal;font-size:9px;line-height:1000;font-family:Roboto;-inkscape-font-specification:Roboto;letter-spacing:0px;word-spacing:0px;fill:#ffffff;fill-opacity:1;stroke:none;stroke-width:0.75"
       xml:space="preserve"><tspan
         style="fill:#ffffff;fill-opacity:1;stroke-width:0.75"
         y="28.501892"
         x="350.22351"
         id="tspan880-4-9-0"
         sodipodi:role="line">P(X&gt;4) = <tspan
   style="font-size:64.99999762%;baseline-shift:sub"
   id="tspan3122">4</tspan>∫<tspan
   style="font-size:64.99999762%;baseline-shift:super"
   id="tspan3124">Inf</tspan> f(x) dx = 1-0.33</tspan></text>
  </g>
  <circle
     style="opacity:1;fill:#d23737;fill-opacity:1;stroke:#ffffff;stroke-width:0.75;stroke-linecap:butt;stroke-linejoin:miter;stroke-miterlimit:4;stroke-dasharray:none;stroke-dashoffset:0;stroke-opacity:1"
     id="path3128"
     cx="195.21068"
     cy="53.480873"
     r="2.8277998" />
  <circle
     style="opacity:1;fill:#030101;fill-opacity:1;stroke:#ffffff;stroke-width:0.75;stroke-linecap:butt;stroke-linejoin:miter;stroke-miterlimit:4;stroke-dasharray:none;stroke-dashoffset:0;stroke-opacity:1"
     id="path3128-1"
     cx="196.80341"
     cy="127.75106"
     r="2.8277998" />
  <g
     id="g899-4-2"
     transform="translate(-146.24999,110.25)">
    <rect
       y="18"
       x="348.75"
       height="15"
       width="105"
       id="rect892-6-8"
       style="opacity:1;fill:#5d5d5d;fill-opacity:1;stroke:none;stroke-width:1.89779985;stroke-linecap:butt;stroke-linejoin:miter;stroke-miterlimit:4;stroke-dasharray:none;stroke-dashoffset:0;stroke-opacity:1"
       ry="3.75" />
    <text
       id="text882-9-8"
       y="28.501892"
       x="350.22351"
       style="font-style:normal;font-variant:normal;font-weight:normal;font-stretch:normal;font-size:9px;line-height:1000;font-family:Roboto;-inkscape-font-specification:Roboto;letter-spacing:0px;word-spacing:0px;fill:#ffffff;fill-opacity:1;stroke:none;stroke-width:0.75"
       xml:space="preserve"><tspan
         style="fill:#ffffff;fill-opacity:1;stroke-width:0.75"
         y="28.501892"
         x="350.22351"
         id="tspan880-4-9"
         sodipodi:role="line">P(X≤4) = <tspan
   id="tspan888-2-2"
   style="font-size:64.99999762%;baseline-shift:sub;fill:#ffffff;fill-opacity:1">0</tspan>∫<tspan
   style="font-size:64.99999762%;baseline-shift:super;fill:#ffffff;fill-opacity:1"
   id="tspan963">4</tspan> f(x) dx = 0.33</tspan></text>
  </g>
</svg>
